<svg width="165" height="32" viewBox="0 0 165 32" fill="none" xmlns="http://www.w3.org/2000/svg">
<path d="M94.1708 10.7578C96.5039 10.7407 96.3038 12.6755 96.3038 12.6755C96.3038 12.6755 96.3208 14.9562 92.9489 15.1954C91.6419 15.285 90.5137 15.0416 90.5137 15.0416C90.5137 15.0416 90.7138 10.7834 94.1751 10.7578H94.1708ZM145.111 20.9056C141.241 20.8459 141.433 16.2845 141.433 15.742C141.433 15.1996 141.433 10.7792 145.231 10.7792C149.028 10.7792 148.909 15.8018 148.909 15.8018C148.909 15.8018 149.075 20.9654 145.111 20.9056ZM160.115 14.512C160.115 14.512 159.157 14.1532 158.812 13.9952C158.433 13.8201 157.147 13.44 157.066 12.3423C156.99 11.249 157.897 10.6809 159.242 10.6809C160.174 10.6809 160.723 10.8731 162.184 11.5052C162.26 11.5394 162.461 11.612 162.58 11.6291C162.61 11.6291 162.635 11.6334 162.661 11.6334C162.669 11.6334 162.673 11.6334 162.682 11.6334C162.916 11.6334 163.116 11.4753 163.189 11.2618C163.206 11.2063 163.214 11.1422 163.218 11.061C163.218 11.061 163.218 11.0596 163.218 11.0568V9.60037C163.218 9.50214 163.201 9.41245 163.18 9.32703C162.997 8.70774 162.226 8.3746 161.477 8.18668C160.796 8.01584 159.804 7.83219 158.229 7.94751C157.232 8.04574 156.44 8.2721 155.802 8.57107C155.772 8.58388 155.747 8.59669 155.717 8.60951H155.708C154.218 9.27578 153.179 10.7706 153.179 12.5089C153.179 13.9909 153.937 15.2936 155.082 16.0581C155.142 16.0965 155.346 16.2289 155.517 16.3314C155.998 16.6219 157.33 17.1856 158.825 17.8006C160.187 18.373 160.196 19.0179 160.2 19.5133C160.2 20.1497 159.8 20.6921 159.242 20.9099C159.148 20.9526 159.042 20.9953 158.923 21.0252C158.752 21.0637 158.327 21.1619 157.709 21.1662C157.475 21.1747 157.164 21.1619 156.815 21.1064C156.096 20.9911 155.172 20.7006 154.171 20.0087C153.516 19.603 153.324 20.1155 153.269 20.6152C153.252 20.8202 153.213 21.4822 153.281 21.9392C153.341 22.3663 153.524 22.8874 154.154 23.2034C154.938 23.5921 156.1 24.0491 158.437 24.0107C160.958 23.9679 163.934 22.7336 164.112 19.492C164.287 16.2503 161.89 15.1313 160.115 14.5035V14.512ZM152.438 15.8403C152.438 15.8403 152.668 7.69979 145.286 7.69979C137.903 7.69979 137.899 14.8793 137.899 15.7506C137.899 16.1563 137.823 17.9672 138.487 19.8037C138.027 20.3632 137.227 21.0124 135.975 21.0124C133.953 21.0124 134.055 19.1076 134.055 19.1076V4.9023C134.055 4.81261 134.05 4.72292 134.046 4.6375V3.93706C134.046 1.77167 132.969 1.85709 130.636 1.85709V19.1417C130.636 19.3596 130.781 21.038 128.639 21.038C126.498 21.038 126.511 19.2784 126.511 19.1417C126.511 19.0051 126.502 9.84809 126.498 9.82246C126.425 7.89198 125.365 7.91761 123.164 7.92188C123.079 7.92188 123.024 7.92188 123.024 7.92188C123.024 7.92188 123.028 17.2881 123.028 18.0953C123.028 18.9026 123.058 21.0167 120.124 21.0167C117.191 21.0167 117.182 19.1033 117.182 18.1381C117.182 17.1728 117.182 10.7023 117.182 10.7023H118.843C120.75 10.7023 120.678 10.0018 120.678 7.92188H117.182V3.99258C117.182 2.14752 116.412 1.90407 114.773 1.87418H113.7V7.92615L107.152 7.91761C106.879 7.91761 106.59 7.93042 106.275 7.95178C105.283 8.05001 104.487 8.27637 103.848 8.57534C103.818 8.58815 103.793 8.60096 103.763 8.61378C103.763 8.61378 103.763 8.61378 103.754 8.61378C102.264 9.27578 101.225 10.7706 101.225 12.5089C101.225 13.9909 101.983 15.2936 103.124 16.0581C103.184 16.0965 103.392 16.2289 103.559 16.3314C104.04 16.6219 105.376 17.1856 106.867 17.8049C108.229 18.3772 108.237 19.0222 108.242 19.5133C108.242 20.154 107.846 20.6964 107.284 20.9099C107.186 20.9526 107.084 20.9911 106.965 21.0252C106.798 21.0637 106.373 21.1619 105.755 21.1662C105.521 21.1704 105.215 21.1619 104.866 21.1064C104.146 20.9953 103.222 20.7006 102.222 20.0087C101.566 19.603 101.374 20.1155 101.319 20.6152C101.302 20.8202 101.264 21.4822 101.332 21.9392C101.396 22.3706 101.575 22.8917 102.205 23.2034C102.988 23.5921 104.15 24.0534 106.488 24.0107C109.008 23.9679 111.98 22.7336 112.159 19.4962C112.337 16.2503 109.936 15.1313 108.161 14.5077C108.161 14.5077 107.203 14.149 106.858 13.9909C106.475 13.8158 105.193 13.4357 105.113 12.3381C105.04 11.2874 105.875 10.7236 107.135 10.6809C112.32 10.6809 113.031 10.6809 113.696 10.6852V18.7445C113.696 19.1631 113.696 19.8123 113.815 20.5127C113.819 20.5469 113.823 20.5725 113.832 20.5981C113.832 20.6195 113.836 20.6366 113.845 20.6537C113.849 20.6836 113.857 20.7135 113.866 20.7433C113.866 20.7604 113.874 20.7775 113.879 20.7989C113.887 20.8288 113.896 20.8629 113.904 20.8928C113.908 20.9099 113.913 20.927 113.921 20.9441C113.93 20.974 113.942 21.0082 113.951 21.0423C113.955 21.0594 113.96 21.0765 113.968 21.0893C113.981 21.1235 113.994 21.1576 114.006 21.1961C114.006 21.2089 114.015 21.2217 114.019 21.2345C114.032 21.2687 114.049 21.3071 114.062 21.3456C114.062 21.3584 114.07 21.3669 114.074 21.3797C114.092 21.4182 114.109 21.4609 114.13 21.4993C114.13 21.5079 114.134 21.5164 114.143 21.5249C114.16 21.5676 114.181 21.6061 114.198 21.6488C114.206 21.6573 114.206 21.6659 114.211 21.6744C114.232 21.7171 114.253 21.7598 114.279 21.8026C114.279 21.8068 114.287 21.8154 114.292 21.8196C114.317 21.8623 114.343 21.9051 114.368 21.9478C114.368 21.9478 114.377 21.9563 114.377 21.9648C114.402 22.0076 114.432 22.0503 114.462 22.093C114.462 22.0972 114.466 22.1015 114.47 22.1058C114.5 22.1485 114.53 22.1912 114.56 22.2382C114.56 22.2382 114.564 22.2425 114.568 22.2467C114.602 22.2894 114.636 22.3322 114.671 22.3791C114.671 22.3791 114.671 22.3791 114.671 22.3834C114.709 22.4261 114.743 22.4731 114.781 22.5158H114.785C114.824 22.5628 114.862 22.6055 114.909 22.6482C115.671 23.4213 116.91 23.9978 118.924 23.9978C121.704 23.9978 123.194 22.4304 123.496 22.0716C123.505 22.0674 123.509 22.0588 123.513 22.0545C123.518 22.0545 123.522 22.0503 123.522 22.046C123.547 22.0204 123.56 22.0033 123.564 21.9947V22.0033C123.564 22.0033 123.573 22.0204 123.577 22.0332C123.632 22.1869 123.909 22.8404 124.739 23.3358C125.391 23.7501 126.306 24.0277 127.592 24.0277C130.006 24.0277 131.279 22.6354 131.5 22.3706C132.169 23.2632 133.378 23.9978 135.562 23.9978C138.219 23.9978 139.619 22.4603 139.853 22.1741C139.866 22.1613 139.875 22.1528 139.887 22.14C140.948 23.2632 142.565 24.0918 145.048 24.1217C152.754 24.2157 152.43 15.8403 152.43 15.8403H152.438ZM124.778 5.84618C123.611 5.84618 122.666 4.89803 122.666 3.72778C122.666 2.55753 123.611 1.60938 124.778 1.60938C125.944 1.60938 126.894 2.55753 126.894 3.72778C126.894 4.89803 125.949 5.84618 124.778 5.84618ZM99.8886 20.1198C99.7864 19.6286 99.5395 19.1375 98.9307 19.6115C98.0111 20.3974 97.1298 20.7818 96.4273 20.9654C95.9973 21.0466 95.4694 21.0936 94.8137 21.0722C91.2545 20.9697 90.8713 17.8135 90.8713 17.8135C99.8971 19.3168 99.7055 12.7865 99.7055 12.7865C99.7055 12.7865 99.7949 8.11834 94.6732 7.92188C87.0353 7.69979 86.8523 15.6951 86.8523 15.6951C86.8523 15.6951 86.3797 23.827 94.4901 24.0619C94.4901 24.0619 97.0872 24.0961 99.0541 22.9429C99.2159 22.8489 99.4927 22.6226 99.4927 22.6226C99.9014 22.2638 99.9993 21.8154 100.016 21.4395C100.038 20.9783 99.9354 20.3248 99.8929 20.1198H99.8886Z" fill="#DE0209"/>
<path d="M17.9665 0.476562H0V2.87685H7.65917V23.7491H10.3116V2.87685H17.9665V0.476562Z" fill="#424242"/>
<path d="M27.9162 20.1847V13.539C27.9162 10.0411 25.6001 7.86719 21.8748 7.86719C19.4651 7.86719 17.2001 8.69576 15.8165 10.0881L15.71 10.1949L17.149 11.9033L17.2725 11.7794C18.3539 10.6946 19.9888 10.0454 21.6492 10.0454C24.2207 10.0454 25.5235 11.3096 25.5235 13.8038V14.1284C20.1037 14.137 14.8628 14.5812 14.8628 19.3817C14.8628 22.6576 17.6599 24.1482 20.257 24.1482C22.6199 24.1482 24.3016 23.3409 25.6597 21.5386C25.6853 22.192 25.7619 22.9352 25.8811 23.6271L25.9067 23.7638H28.2099L28.1716 23.5673C28.0184 22.7686 27.9162 21.4147 27.9162 20.1975V20.1847ZM25.5235 16.1657V17.1352C25.5235 19.4757 24.0589 21.9956 20.8403 21.9956C20.0441 21.9956 17.4513 21.7991 17.4513 19.275C17.4513 16.486 21.7812 16.1657 25.0424 16.1657H25.5235Z" fill="#424242"/>
<path d="M39.6796 10.4209L39.8712 10.4935L40.2118 8.0761L40.0755 8.03766C39.5604 7.88818 39.0495 7.87109 38.5769 7.87109C36.6142 7.87109 34.7963 8.89186 33.8213 10.5063C33.8 9.84856 33.7489 9.01998 33.7021 8.40923L33.6893 8.25975H31.2583L31.2753 8.43913C31.3775 9.52396 31.4031 11.0359 31.4031 11.762V23.7549H33.9277V15.8151C33.9277 11.7064 36.1288 10.2415 38.1895 10.2415C38.7642 10.2415 39.4539 10.3397 39.6838 10.4251L39.6796 10.4209Z" fill="#424242"/>
<path d="M42.515 0.867188C41.6891 0.867188 40.7993 1.55909 40.7993 2.58839C40.7993 3.6177 41.6848 4.30533 42.515 4.30533C43.3452 4.30533 44.2308 3.61343 44.2308 2.58839C44.2308 1.56336 43.3452 0.867188 42.515 0.867188Z" fill="#424242"/>
<path d="M41.2549 26.2433C41.2549 28.1908 40.9313 29.3184 39.2837 29.3184C38.8366 29.3184 38.313 29.2458 37.9426 29.1304L37.768 29.0749L37.3891 31.2488L37.5296 31.2916C38.0746 31.4539 38.8239 31.5265 39.322 31.5265C42.2383 31.5265 43.7795 29.8223 43.7795 26.5977V8.25391H41.2591V26.2433H41.2549Z" fill="#424242"/>
<path d="M54.1464 7.86365C49.7059 7.86365 46.3595 11.3616 46.3595 15.9999C46.3595 20.6381 49.791 24.1361 54.3422 24.1361C57.0372 24.1361 59.2639 23.0342 60.9626 20.8645L61.0648 20.7364L59.1447 19.2244L59.0467 19.3782C58.2889 20.6082 56.6498 21.9237 54.338 21.9237C51.4514 21.9237 49.1268 19.6601 48.9821 16.743H61.499L61.5118 16.5935C61.5459 16.1963 61.5459 15.8333 61.5459 15.5429C61.5459 10.8747 58.6423 7.85938 54.1464 7.85938V7.86365ZM49.0289 14.6716C49.2886 12.3653 51.2343 10.0418 54.1464 10.0418C57.0585 10.0418 58.7828 11.81 58.9829 14.6716H49.0289Z" fill="#424242"/>
<path d="M70.9038 21.2694C70.3205 21.5641 69.6351 21.7392 69.0688 21.7392C67.9789 21.7392 66.9699 21.4231 66.9699 19.1168V10.4339H71.2359V8.25999H66.9699V3.98047H64.4495V8.25999H61.316V10.4339H64.4495V19.7318C64.4495 23.5373 67.2764 23.9473 68.4898 23.9473C69.4477 23.9473 70.2907 23.7978 71.1294 23.4818L71.2401 23.439L71.1252 21.1583L70.9038 21.2694Z" fill="#424242"/>
<path d="M84.6725 23.5584C84.5192 22.7597 84.417 21.4058 84.417 20.1886V13.543C84.417 10.045 82.101 7.87109 78.3757 7.87109C75.966 7.87109 73.701 8.69966 72.3173 10.092L72.2109 10.1988L73.6499 11.9072L73.7734 11.7833C74.8548 10.6985 76.4896 10.0493 78.15 10.0493C80.7216 10.0493 82.0243 11.3135 82.0243 13.8078V14.1323C76.6046 14.1409 71.3636 14.5851 71.3636 19.3856C71.3636 22.6615 74.1608 24.1521 76.7578 24.1521C79.1207 24.1521 80.8024 23.3448 82.1606 21.5425C82.1861 22.196 82.2628 22.9391 82.382 23.6267L82.4075 23.7634H84.7108L84.6725 23.5669V23.5584ZM82.0243 16.1696V17.1391C82.0243 19.4796 80.5598 21.9995 77.3411 21.9995C76.545 21.9995 73.9522 21.803 73.9522 19.2789C73.9522 16.4899 78.282 16.1696 81.5432 16.1696H82.0243Z" fill="#424242"/>
</svg>
